<?xml version="1.0" encoding="UTF-8"?>
<!-- Do not edit this file with editors other than draw.io -->
<!DOCTYPE svg PUBLIC "-//W3C//DTD SVG 1.1//EN" "http://www.w3.org/Graphics/SVG/1.1/DTD/svg11.dtd">
<svg xmlns="http://www.w3.org/2000/svg" style="background: transparent; background-color: transparent; color-scheme: light dark;" xmlns:xlink="http://www.w3.org/1999/xlink" version="1.1" width="360px" height="310px" viewBox="0 0 360 310" content="&lt;mxfile host=&quot;app.diagrams.net&quot; scale=&quot;1&quot; border=&quot;0&quot;&gt;&#10;  &lt;diagram name=&quot;Page-1&quot; id=&quot;XSAOtTBXwLkhm7s3VyM8&quot;&gt;&#10;    &lt;mxGraphModel dx=&quot;628&quot; dy=&quot;538&quot; grid=&quot;1&quot; gridSize=&quot;10&quot; guides=&quot;1&quot; tooltips=&quot;1&quot; connect=&quot;1&quot; arrows=&quot;1&quot; fold=&quot;1&quot; page=&quot;1&quot; pageScale=&quot;1&quot; pageWidth=&quot;850&quot; pageHeight=&quot;1100&quot; math=&quot;0&quot; shadow=&quot;0&quot;&gt;&#10;      &lt;root&gt;&#10;        &lt;mxCell id=&quot;0&quot; /&gt;&#10;        &lt;mxCell id=&quot;1&quot; parent=&quot;0&quot; /&gt;&#10;        &lt;mxCell id=&quot;86d5ECrJtWe0o0kV9qyJ-11&quot; parent=&quot;1&quot; style=&quot;rounded=1;whiteSpace=wrap;html=1;strokeColor=none;arcSize=21;fillColor=light-dark(#FFFFFF,#FFFFFF);&quot; value=&quot;&quot; vertex=&quot;1&quot;&gt;&#10;          &lt;mxGeometry height=&quot;310&quot; width=&quot;360&quot; x=&quot;320&quot; y=&quot;290&quot; as=&quot;geometry&quot; /&gt;&#10;        &lt;/mxCell&gt;&#10;        &lt;mxCell id=&quot;uCsfygYjaywvo8fArbBW-2&quot; edge=&quot;1&quot; parent=&quot;1&quot; style=&quot;endArrow=none;startArrow=none;html=1;rounded=1;startFill=0;endFill=0;strokeWidth=26;curved=0;startSize=20;fillColor=light-dark(#FF0034,#FF0034);strokeColor=light-dark(#FF0034,#FF0034);&quot; value=&quot;&quot;&gt;&#10;          &lt;mxGeometry height=&quot;50&quot; relative=&quot;1&quot; width=&quot;50&quot; as=&quot;geometry&quot;&gt;&#10;            &lt;Array as=&quot;points&quot;&gt;&#10;              &lt;mxPoint x=&quot;407&quot; y=&quot;538&quot; /&gt;&#10;            &lt;/Array&gt;&#10;            &lt;mxPoint x=&quot;380&quot; y=&quot;393&quot; as=&quot;sourcePoint&quot; /&gt;&#10;            &lt;mxPoint x=&quot;524&quot; y=&quot;468&quot; as=&quot;targetPoint&quot; /&gt;&#10;          &lt;/mxGeometry&gt;&#10;        &lt;/mxCell&gt;&#10;        &lt;mxCell id=&quot;uCsfygYjaywvo8fArbBW-6&quot; edge=&quot;1&quot; parent=&quot;1&quot; style=&quot;orthogonalLoop=1;jettySize=auto;html=1;rounded=1;endArrow=none;endFill=0;strokeWidth=26;fillColor=#e51400;strokeColor=light-dark(#FF0034,#FF0034);&quot; value=&quot;&quot;&gt;&#10;          &lt;mxGeometry relative=&quot;1&quot; width=&quot;100&quot; as=&quot;geometry&quot;&gt;&#10;            &lt;Array as=&quot;points&quot;&gt;&#10;              &lt;mxPoint x=&quot;523&quot; y=&quot;422&quot; /&gt;&#10;              &lt;mxPoint x=&quot;439&quot; y=&quot;472&quot; /&gt;&#10;              &lt;mxPoint x=&quot;451&quot; y=&quot;351&quot; /&gt;&#10;              &lt;mxPoint x=&quot;657&quot; y=&quot;388&quot; /&gt;&#10;            &lt;/Array&gt;&#10;            &lt;mxPoint x=&quot;581&quot; y=&quot;517&quot; as=&quot;sourcePoint&quot; /&gt;&#10;            &lt;mxPoint x=&quot;563&quot; y=&quot;445&quot; as=&quot;targetPoint&quot; /&gt;&#10;          &lt;/mxGeometry&gt;&#10;        &lt;/mxCell&gt;&#10;        &lt;mxCell id=&quot;86d5ECrJtWe0o0kV9qyJ-9&quot; parent=&quot;1&quot; style=&quot;verticalLabelPosition=bottom;verticalAlign=top;html=1;shape=mxgraph.basic.donut;dx=19.09;rounded=1;fillColor=light-dark(#FF0034,#FF0034);strokeColor=none;fontColor=#ffffff;&quot; value=&quot;&quot; vertex=&quot;1&quot;&gt;&#10;          &lt;mxGeometry height=&quot;81&quot; width=&quot;84&quot; x=&quot;333&quot; y=&quot;325&quot; as=&quot;geometry&quot; /&gt;&#10;        &lt;/mxCell&gt;&#10;        &lt;mxCell id=&quot;86d5ECrJtWe0o0kV9qyJ-10&quot; parent=&quot;1&quot; style=&quot;verticalLabelPosition=bottom;verticalAlign=top;html=1;shape=mxgraph.basic.donut;dx=19.09;rounded=1;fillColor=light-dark(#FF0034,#FF0034);strokeColor=none;fontColor=#ffffff;&quot; value=&quot;&quot; vertex=&quot;1&quot;&gt;&#10;          &lt;mxGeometry height=&quot;81&quot; width=&quot;84&quot; x=&quot;549&quot; y=&quot;497&quot; as=&quot;geometry&quot; /&gt;&#10;        &lt;/mxCell&gt;&#10;      &lt;/root&gt;&#10;    &lt;/mxGraphModel&gt;&#10;  &lt;/diagram&gt;&#10;&lt;/mxfile&gt;&#10;"><defs/><g><g data-cell-id="0"><g data-cell-id="1"><g data-cell-id="86d5ECrJtWe0o0kV9qyJ-11"><g transform="translate(0.5,0.5)"><rect x="0" y="0" width="360" height="310" rx="65.1" ry="65.1" fill="#ffffff" stroke="none" pointer-events="all" style="fill: rgb(255, 255, 255);"/></g></g><g data-cell-id="uCsfygYjaywvo8fArbBW-2"><g><path d="M 60 103 L 85.17 238.17 Q 87 248 95.58 242.87 L 204 178" fill="none" stroke="#ff0034" stroke-width="26" stroke-miterlimit="10" pointer-events="stroke" style="stroke: rgb(255, 0, 52);"/></g></g><g data-cell-id="uCsfygYjaywvo8fArbBW-6"><g><path d="M 261 227 L 208.21 140.54 Q 203 132 194.41 137.11 L 127.59 176.89 Q 119 182 119.99 172.05 L 130.01 70.95 Q 131 61 140.84 62.77 L 327.16 96.23 Q 337 98 328.45 103.19 L 243 155" fill="none" stroke="#ff0034" stroke-width="26" stroke-miterlimit="10" pointer-events="stroke" style="stroke: rgb(255, 0, 52);"/></g></g><g data-cell-id="86d5ECrJtWe0o0kV9qyJ-9"><g transform="translate(0.5,0.5)"><path d="M 13 75.5 C 13 53.13 31.8 35 55 35 C 66.14 35 76.82 39.27 84.7 46.86 C 92.58 54.46 97 64.76 97 75.5 C 97 86.24 92.58 96.54 84.7 104.14 C 76.82 111.73 66.14 116 55 116 C 43.86 116 33.18 111.73 25.3 104.14 C 17.42 96.54 13 86.24 13 75.5 Z M 55 54.09 C 42.35 54.09 32.09 63.68 32.09 75.5 C 32.09 87.32 42.35 96.91 55 96.91 C 67.65 96.91 77.91 87.32 77.91 75.5 C 77.91 63.68 67.65 54.09 55 54.09 Z" fill="#ff0034" stroke="none" pointer-events="all" style="fill: rgb(255, 0, 52);"/></g></g><g data-cell-id="86d5ECrJtWe0o0kV9qyJ-10"><g transform="translate(0.5,0.5)"><path d="M 229 247.5 C 229 225.13 247.8 207 271 207 C 282.14 207 292.82 211.27 300.7 218.86 C 308.58 226.46 313 236.76 313 247.5 C 313 258.24 308.58 268.54 300.7 276.14 C 292.82 283.73 282.14 288 271 288 C 259.86 288 249.18 283.73 241.3 276.14 C 233.42 268.54 229 258.24 229 247.5 Z M 271 226.09 C 258.35 226.09 248.09 235.68 248.09 247.5 C 248.09 259.32 258.35 268.91 271 268.91 C 283.65 268.91 293.91 259.32 293.91 247.5 C 293.91 235.68 283.65 226.09 271 226.09 Z" fill="#ff0034" stroke="none" pointer-events="all" style="fill: rgb(255, 0, 52);"/></g></g></g></g></g></svg>